<?xml version="1.0" encoding="utf-8"?>
<svg width="320" height="96" id="svg2985" version="1.1" xmlns="http://www.w3.org/2000/svg">
  <g id="layer1" transform="translate(0,64)">
    <path style="fill:#000000;fill-opacity:1;stroke:none" d="m 10,-41 0,-14 2,0 0,14 z" id="path2995"/>
    <path style="fill:#000000;fill-opacity:1;stroke:none" d="m 12,-54 c 0,0 3,-1 5,1 2,2 5,1 5,1 l 0,8 c 0,0 -3,1 -5,-1 -2,-2 -5,-1 -5,-1 z" id="path3765"/>
    <path style="fill:#000000;fill-opacity:1;stroke:none" d="m 42,-55 4,0 0,14 -4,0 z" id="path3807"/>
    <path style="fill:#000000;fill-opacity:1;stroke:none" d="m 49,-55 4,0 0,14 -4,0 z" id="path3817"/>
    <path style="fill:#000000;fill-opacity:1;stroke:none" d="m 109,-41 6,0 4,-4 0,-6 -4,-4 -6,0 -4,4 0,6 z" id="path3821"/>
    <path style="fill:#000000;fill-opacity:1;stroke:none" d="m 74,-55 12,7 -12,7 z" id="path3823"/>
    <path style="fill:#000000;fill-opacity:1;stroke:none" d="m 169,-55 7,0 0,2 -5,0 0,10 10,0 0,-5 2,0 0,7 -14,0 z" id="path3910"/>
    <path style="fill:#000000;fill-opacity:1;stroke:none" d="m 175,-48.5 4.5,-4.5 -2,-2 5.5,0 0,5.5 -2,-2 -4.5,4.5 -1.5,0 z" id="path3912"/>
    <path style="fill:#000000;fill-opacity:1;stroke:none" d="m 151,-55 0,5.5 -2,-2 -2.5,2.5 -0.65587,-0.655869 L 145,-50.5 l 2.5,-2.5 -2,-2 z" id="path3936"/>
    <path id="path3938" d="m 137,-55 5.5,0 -2,2 2.5,2.5 -1.5,1.5 -2.5,-2.5 -2,2 z" style="fill:#000000;fill-opacity:1;stroke:none"/>
    <path style="fill:#000000;fill-opacity:1;stroke:none" d="m 137,-41 0,-5.5 2,2 2.5,-2.5 1.5,1.5 -2.5,2.5 2,2 z" id="path3940"/>
    <path id="path4108" d="m 151,-41 -5.5,0 2,-2 -2.5,-2.5 0.65587,-0.65587 L 146.5,-47 l 2.5,2.5 2,-2 z" style="fill:#000000;fill-opacity:1;stroke:none"/>
    <path style="fill:#ffffff;fill-opacity:1;stroke:none" d="m 10,-9 0,-14 2,0 0,14 z" id="path2995-7"/>
    <path style="fill:#ffffff;fill-opacity:1;stroke:none" d="m 12,-22 c 0,0 3,-1 5,1 2,2 5,1 5,1 l 0,8 c 0,0 -3,1 -5,-1 -2,-2 -5,-1 -5,-1 z" id="path3765-8"/>
    <path style="fill:#ffffff;fill-opacity:1;stroke:none" d="m 42,-23 4,0 0,14 -4,0 z" id="path3807-1"/>
    <path style="fill:#ffffff;fill-opacity:1;stroke:none" d="m 49,-23 4,0 0,14 -4,0 z" id="path3817-3"/>
    <path style="fill:#ffffff;fill-opacity:1;stroke:none" d="m 109,-9 6,0 4,-4 0,-6 -4,-4 -6,0 -4,4 0,6 z" id="path3821-4"/>
    <path style="fill:#ffffff;fill-opacity:1;stroke:none" d="m 74,-23 12,7 -12,7 z" id="path3823-2"/>
    <path style="fill:#ffffff;fill-opacity:1;stroke:none" d="m 145,-17 0,-5.5 2,2 2.5,-2.5 0.65587,0.655869 L 151,-21.5 l -2.5,2.5 2,2 z" id="path3936-2"/>
    <path id="path3938-7" d="m 143,-17 -5.5,0 2,-2 -2.5,-2.5 1.5,-1.5 2.5,2.5 2,-2 z" style="fill:#ffffff;fill-opacity:1;stroke:none"/>
    <path style="fill:#ffffff;fill-opacity:1;stroke:none" d="m 143,-15 0,5.5 -2,-2 -2.5,2.5 -1.5,-1.5 2.5,-2.5 -2,-2 z" id="path3940-7"/>
    <path id="path4011" d="m 145,-15 5.5,0 -2,2 2.5,2.5 -0.65587,0.65587 L 149.5,-9 l -2.5,-2.5 -2,2 z" style="fill:#ffffff;fill-opacity:1;stroke:none"/>
    <path style="fill:#2eaedf;fill-opacity:1;stroke:none" id="path2987" d="M 20,10 A 10,10 0 1 1 0,10 10,10 0 1 1 20,10 z" transform="translate(166,-26)"/>
    <path style="fill:#ffffff;fill-opacity:1;stroke:none" d="m 170,-14.5 4,4 7,-7 0,-4 -7,7 -2,-2 z" id="path3757"/>
    <path style="font-size:medium;font-style:normal;font-variant:normal;font-weight:normal;font-stretch:normal;text-indent:0;text-align:start;text-decoration:none;line-height:normal;letter-spacing:normal;word-spacing:normal;text-transform:none;direction:ltr;block-progression:tb;writing-mode:lr-tb;text-anchor:start;baseline-shift:baseline;color:#000000;fill:#a0a0a0;fill-opacity:1;stroke:none;stroke-width:3;marker:none;visibility:visible;display:inline;overflow:visible;enable-background:accumulate;font-family:Sans;-inkscape-font-specification:Sans" d="m 204,-60 c 0,0 -5.0562,12.7972 -6.24914,15.622841 -1.19293,2.825642 0.18937,3.610092 2.77165,2.58919 C 203.10479,-42.808871 239,-57 239,-57 l 0,-3 -38,15 6,-15 z" id="path3857"/>
    <path style="fill:#ffffff;fill-opacity:1;stroke:none" d="m 201,-45 6,-15 32,0 z" id="path3865"/>
    <path style="font-size:medium;font-style:normal;font-variant:normal;font-weight:normal;font-stretch:normal;text-indent:0;text-align:start;text-decoration:none;line-height:normal;letter-spacing:normal;word-spacing:normal;text-transform:none;direction:ltr;block-progression:tb;writing-mode:lr-tb;text-anchor:start;baseline-shift:baseline;color:#000000;fill:#a0a0a0;fill-opacity:1;stroke:none;stroke-width:3;marker:none;visibility:visible;display:inline;overflow:visible;enable-background:accumulate;font-family:Sans;-inkscape-font-specification:Sans" d="m 231,-28 c 0,0 5.0562,12.7972 6.24914,15.622841 1.19293,2.825642 -0.18937,3.610092 -2.77165,2.58919 C 231.89521,-10.808871 196,-25 196,-25 l 0,-3 38,15 -6,-15 z" id="path3857-3"/>
    <path style="fill:#ffffff;fill-opacity:1;stroke:none" d="m 234,-13 -6,-15 -32,0 z" id="path3865-8"/>
    <path style="fill:#ffffff;fill-opacity:1;stroke:#a0a0a0;stroke-width:1.19508696;stroke-miterlimit:4;stroke-opacity:1;stroke-dasharray:none" id="path3975" d="m 271,17.5 a 4,2.5 0 1 1 -8,0 4,2.5 0 1 1 8,0 z" transform="matrix(0.87501238,0,0,0.80001981,31.288154,-56.416806)"/>
    <path style="fill:#ffffff;fill-opacity:1;stroke:#a0a0a0;stroke-width:1.46086073;stroke-miterlimit:4;stroke-opacity:1;stroke-dasharray:none" id="path3975-6" d="m 271,17.5 a 4,2.5 0 1 1 -8,0 4,2.5 0 1 1 8,0 z" transform="matrix(1.0427754,0,0,0.82844058,-6.7035308,-60.947711)"/>
    <path style="fill:#ffffff;fill-opacity:1;stroke:#a0a0a0;stroke-width:1.3999728;stroke-miterlimit:4;stroke-opacity:1;stroke-dasharray:none" id="path3975-6-6" d="m 271,17.5 a 4,2.5 0 1 1 -8,0 4,2.5 0 1 1 8,0 z" transform="matrix(1.3749995,0,0,1.2378939,-89.624862,-74.663143)"/>
    <path style="fill:#ffffff;fill-opacity:1;stroke:#a0a0a0;stroke-width:1.19508696;stroke-miterlimit:4;stroke-opacity:1;stroke-dasharray:none" id="path3975-1" d="m 271,17.5 a 4,2.5 0 1 1 -8,0 4,2.5 0 1 1 8,0 z" transform="matrix(-0.87501238,0,0,0.80001981,532.71185,-24.416347)"/>
    <path style="fill:#ffffff;fill-opacity:1;stroke:#a0a0a0;stroke-width:1.46086073;stroke-miterlimit:4;stroke-opacity:1;stroke-dasharray:none" id="path3975-6-3" d="m 271,17.5 a 4,2.5 0 1 1 -8,0 4,2.5 0 1 1 8,0 z" transform="matrix(-1.0427754,0,0,0.82844058,570.70353,-28.947252)"/>
    <path style="fill:#ffffff;fill-opacity:1;stroke:#a0a0a0;stroke-width:1.3999728;stroke-miterlimit:4;stroke-opacity:1;stroke-dasharray:none" id="path3975-6-6-4" d="m 271,17.5 a 4,2.5 0 1 1 -8,0 4,2.5 0 1 1 8,0 z" transform="matrix(-1.3749995,0,0,1.2378939,653.62486,-42.662683)"/>
    <path id="path3045" d="m 151,9 0,5.5 -2,-2 -2.5,2.5 -0.65587,-0.655869 L 145,13.5 l 2.5,-2.5 -2,-2 z" style="fill:#ffffff;fill-opacity:1;stroke:none"/>
    <path style="fill:#ffffff;fill-opacity:1;stroke:none" d="m 137,9 5.5,0 -2,2 2.5,2.5 -1.5,1.5 -2.5,-2.5 -2,2 z" id="path3047"/>
    <path id="path3049" d="m 137,23 0,-5.5 2,2 2.5,-2.5 1.5,1.5 -2.5,2.5 2,2 z" style="fill:#ffffff;fill-opacity:1;stroke:none"/>
    <path style="fill:#ffffff;fill-opacity:1;stroke:none" d="m 151,23 -5.5,0 2,-2 -2.5,-2.5 0.65587,-0.65587 L 146.5,17 l 2.5,2.5 2,-2 z" id="path3051"/>
    <path d="M 9.828 -41.351 L 9.828 -55.351 L 11.828 -55.351 L 11.828 -41.351 Z" style="fill: rgb(95, 204, 40);"/>
    <path d="M 11.828 -54.351 C 11.828 -54.351 14.828 -55.351 16.828 -53.351 C 18.828 -51.351 21.828 -52.351 21.828 -52.351 L 21.828 -44.351 C 21.828 -44.351 18.828 -43.351 16.828 -45.351 C 14.828 -47.351 11.828 -46.351 11.828 -46.351 Z" style="fill: rgb(95, 204, 40);"/>
    <path d="M 41.828 -55.351 L 45.828 -55.351 L 45.828 -41.351 L 41.828 -41.351 Z" style="fill: rgb(126, 126, 126);"/>
    <path d="M 48.828 -55.351 L 52.828 -55.351 L 52.828 -41.351 L 48.828 -41.351 Z" style="fill: rgb(126, 126, 126);"/>
    <path d="M 108.828 -41.351 L 114.828 -41.351 L 118.828 -45.351 L 118.828 -51.351 L 114.828 -55.351 L 108.828 -55.351 L 104.828 -51.351 L 104.828 -45.351 Z" style="fill: rgb(222, 19, 19);"/>
    <path d="M 73.828 -55.351 L 85.828 -48.351 L 73.828 -41.351 Z" style="fill: rgb(78, 146, 235);"/>
  </g>
</svg>